<?xml version="1.0" standalone="no"?>
<!DOCTYPE svg PUBLIC "-//W3C//DTD SVG 20010904//EN"
 "http://www.w3.org/TR/2001/REC-SVG-20010904/DTD/svg10.dtd">
<svg version="1.0" xmlns="http://www.w3.org/2000/svg"
 width="500.000000pt" height="500.000000pt" viewBox="0 0 500.000000 500.000000"
 preserveAspectRatio="xMidYMid meet">

<g transform="translate(0.000000,500.000000) scale(0.100000,-0.100000)"
fill="#000000" stroke="none">
<path d="M2295 4498 c-206 -23 -452 -90 -625 -170 -77 -35 -237 -124 -250
-138 -3 -3 -17 -11 -32 -19 -15 -8 -25 -19 -21 -24 3 -6 1 -7 -5 -3 -6 3 -16
0 -24 -7 -7 -7 -29 -24 -48 -37 -19 -14 -52 -41 -72 -62 -21 -20 -38 -34 -38
-30 0 3 -25 -18 -55 -48 -30 -29 -51 -58 -48 -63 3 -6 2 -7 -4 -4 -6 4 -21 -5
-33 -18 -13 -14 -19 -25 -15 -25 5 0 -1 -7 -13 -16 -12 -8 -19 -20 -16 -26 4
-6 3 -8 -3 -5 -13 8 -51 -35 -45 -52 3 -8 1 -11 -4 -9 -5 3 -18 -3 -28 -13
-12 -11 -14 -19 -7 -19 7 0 9 -5 6 -11 -4 -6 -9 -8 -12 -5 -6 6 -63 -62 -63
-75 0 -5 5 -9 10 -9 9 0 14 15 11 33 -1 5 3 6 9 2 11 -7 6 -19 -18 -47 -7 -9
-11 -23 -7 -30 6 -10 5 -11 -6 0 -12 11 -38 18 -27 6 3 -3 -5 -16 -18 -29 -26
-26 -32 -46 -12 -41 7 1 10 1 5 -1 -4 -3 -5 -9 -2 -14 4 -5 -1 -6 -9 -3 -10 4
-16 1 -16 -8 0 -8 -9 -23 -20 -33 -11 -10 -17 -21 -15 -25 3 -5 2 -10 -2 -12
-15 -6 -43 -79 -36 -91 5 -7 10 -343 13 -747 3 -404 9 -743 14 -752 6 -13 4
-18 -8 -18 -20 0 -21 -14 -1 -34 18 -17 20 -62 3 -72 -7 -5 -9 -2 -6 7 4 10
-1 15 -12 15 -23 0 -15 -23 11 -31 20 -7 25 -20 10 -30 -6 -3 -9 -15 -8 -26 1
-19 2 -19 15 -2 13 17 14 17 8 -4 -10 -30 3 -75 20 -69 9 3 11 0 7 -12 -6 -15
-3 -14 15 2 12 11 22 17 23 15 1 -2 2 -19 4 -38 2 -22 0 -29 -6 -20 -5 8 -6
23 -3 34 5 19 4 19 -6 2 -14 -22 -4 -71 12 -61 7 4 8 3 4 -4 -9 -15 22 -62 40
-62 8 0 14 -5 14 -11 0 -5 -5 -7 -11 -3 -8 4 -8 0 0 -15 7 -11 17 -21 23 -21
6 0 9 -3 5 -6 -6 -6 70 -112 103 -144 8 -8 46 -50 84 -93 38 -43 70 -76 73
-73 2 2 28 -19 56 -48 61 -60 127 -112 139 -109 4 2 8 -1 8 -6 0 -16 160 -117
285 -180 104 -51 343 -143 363 -139 4 1 14 -1 22 -5 141 -53 530 -78 765 -48
286 36 596 152 845 318 766 508 1086 1451 791 2332 -34 100 -129 302 -183 389
-270 433 -719 769 -1188 890 -245 64 -512 86 -735 60z m883 -689 c43 -16 72
-58 72 -105 l0 -44 -315 0 c-336 0 -333 0 -299 48 21 30 65 51 127 62 29 5
113 21 187 34 128 23 175 24 228 5z m-138 -264 l0 -75 -45 0 -45 0 0 75 0 75
45 0 45 0 0 -75z m-652 -67 c7 -7 12 -20 12 -31 0 -11 11 -22 30 -28 49 -18
49 -79 -2 -79 -10 0 -21 -8 -24 -17 -12 -38 -22 -48 -50 -48 -21 0 -30 5 -32
20 -6 28 -21 45 -43 45 -10 0 -23 8 -28 18 -13 24 10 59 41 64 13 2 24 11 26
23 8 42 44 59 70 33z m-1588 -41 c0 -5 -4 -6 -9 -3 -5 3 -11 -4 -14 -15 -4
-15 -2 -19 9 -15 9 3 14 -1 14 -14 0 -24 -9 -25 -25 -3 -9 12 -9 25 -2 50 7
23 13 29 19 21 4 -7 8 -17 8 -21z m2429 -31 c20 -21 22 -32 19 -115 l-3 -91
-215 -2 c-118 0 -235 0 -258 1 l-44 1 4 96 c5 139 -5 134 262 134 210 0 213 0
235 -24z m-1710 -86 c0 -3 -20 -26 -44 -53 l-44 -47 -26 35 c-15 19 -32 32
-38 28 -6 -3 -7 -1 -3 5 4 7 2 12 -3 12 -23 0 -9 34 32 77 l42 44 42 -48 c24
-26 43 -50 42 -53z m-759 36 c0 -27 -16 -43 -23 -24 -8 22 -27 -42 -21 -70 4
-23 4 -24 -6 -9 -6 10 -10 28 -8 40 1 12 -1 27 -4 33 -4 6 -1 20 7 30 8 11 14
14 15 7 0 -18 20 -16 20 2 0 8 5 15 10 15 6 0 10 -11 10 -24z m27 -78 c0 -24
-1 -32 -4 -18 -3 14 -9 29 -14 35 -13 13 -11 25 4 25 9 0 13 -15 14 -42z
m1138 -49 c21 -23 48 -66 62 -96 23 -51 25 -65 26 -243 1 -125 -2 -193 -9
-200 -7 -7 -49 -10 -115 -8 l-104 3 1 180 c1 151 5 193 23 258 29 105 47 147
64 147 8 0 31 -19 52 -41z m1377 -79 c100 -28 181 -137 182 -244 l1 -61 -350
-5 -350 -5 -3 -357 -2 -358 352 -2 353 -3 3 -248 2 -248 -29 -30 -30 -30 -456
3 -457 3 -19 24 c-23 29 -16 38 31 43 l35 3 3 335 c3 371 -1 397 -58 435 l-30
20 0 275 0 275 30 52 c16 28 45 63 63 77 70 54 80 55 397 56 174 0 310 -4 332
-10z m474 -209 c5 -22 13 -30 34 -34 49 -10 50 -64 1 -73 -20 -4 -30 -15 -37
-37 -7 -25 -15 -32 -34 -32 -19 0 -26 7 -33 31 -7 24 -17 33 -37 37 -50 10
-50 61 0 72 21 5 30 14 35 36 5 24 12 29 36 29 25 0 30 -5 35 -29z m-291 -466
l0 -320 -332 -3 -333 -2 0 325 0 325 333 -2 332 -3 0 -320z m-1415 15 l0 -160
-169 0 c-145 0 -170 2 -175 16 -8 20 -8 252 0 282 6 22 9 22 175 22 l169 0 0
-160z m-780 111 c3 -14 12 -27 19 -29 9 -3 11 0 6 9 -4 8 7 -1 24 -20 29 -30
31 -35 18 -54 -8 -12 -25 -24 -38 -27 -15 -4 -25 -14 -27 -27 -4 -25 -17 -38
-51 -48 -16 -5 -21 -4 -17 4 4 6 2 11 -3 11 -6 0 -11 13 -11 28 0 21 -5 28
-21 29 -28 2 -58 30 -55 51 2 9 19 26 38 37 35 20 38 23 38 49 0 9 12 13 37
12 31 -1 38 -5 43 -25z m1168 -211 c70 -18 72 -28 72 -340 l0 -271 -152 3
-153 3 -3 272 -2 272 -53 3 c-48 3 -52 5 -55 30 -4 32 -5 32 174 36 76 2 148
-1 172 -8z m1486 -37 c8 -16 35 -49 61 -74 l47 -46 -50 -47 c-27 -26 -55 -60
-62 -76 -16 -39 -25 -38 -45 5 -10 19 -37 53 -62 75 l-44 42 49 52 c27 28 54
62 61 74 16 29 27 28 45 -5z m-1759 -108 l0 -50 -285 0 -285 0 -5 41 c-3 23
-4 46 -2 53 3 8 80 11 290 9 l287 -3 0 -50z m0 -358 l0 -269 -33 -29 -32 -29
-226 0 -226 0 -29 29 -29 29 0 265 c0 145 3 267 7 270 4 4 133 6 287 5 l281
-3 0 -268z m-1405 -95 c0 -10 -22 -32 -32 -32 -4 0 -8 9 -8 20 0 13 7 20 20
20 11 0 20 -4 20 -8z m1703 -51 l47 -1 0 -40 0 -41 -152 3 -153 3 -3 37 -3 37
63 3 c35 2 83 2 108 1 25 -1 66 -2 93 -2z m-1697 -42 c-3 -17 -6 -38 -6 -45 0
-8 -4 -14 -10 -14 -11 0 -14 73 -3 83 16 16 25 5 19 -24z m-12 -91 c-1 -13 -3
-26 -3 -30 -1 -5 -5 -8 -10 -8 -14 0 -18 33 -6 47 15 19 22 15 19 -9z m66
-138 c0 -5 -2 -10 -4 -10 -3 0 -8 5 -11 10 -3 6 -1 10 4 10 6 0 11 -4 11 -10z"/>
<path d="M2390 2327 c0 -8 11 -19 25 -25 22 -10 24 -17 27 -89 2 -61 6 -78 18
-78 12 0 16 17 18 78 3 71 1 79 -22 102 -27 27 -66 34 -66 12z"/>
<path d="M665 3270 c-3 -5 -1 -10 4 -10 6 0 11 5 11 10 0 6 -2 10 -4 10 -3 0
-8 -4 -11 -10z"/>
<path d="M598 3108 c4 -16 2 -19 -8 -13 -9 5 -11 4 -6 -4 6 -9 11 -9 22 0 11
9 11 15 3 25 -16 19 -18 18 -11 -8z"/>
<path d="M571 3044 c0 -11 3 -14 6 -6 3 7 2 16 -1 19 -3 4 -6 -2 -5 -13z"/>
<path d="M537 2873 c-9 -9 -9 -43 1 -43 4 0 7 11 7 25 0 14 0 25 -1 25 0 0 -4
-3 -7 -7z"/>
<path d="M530 2776 c0 -9 5 -16 10 -16 6 0 10 4 10 9 0 6 -4 13 -10 16 -5 3
-10 -1 -10 -9z"/>
<path d="M541 2634 c0 -11 3 -14 6 -6 3 7 2 16 -1 19 -3 4 -6 -2 -5 -13z"/>
<path d="M532 2380 c0 -14 2 -19 5 -12 2 6 2 18 0 25 -3 6 -5 1 -5 -13z"/>
<path d="M560 2260 c0 -11 5 -20 10 -20 6 0 10 9 10 20 0 11 -4 20 -10 20 -5
0 -10 -9 -10 -20z"/>
<path d="M620 2265 c0 -8 5 -15 10 -15 6 0 10 7 10 15 0 8 -4 15 -10 15 -5 0
-10 -7 -10 -15z"/>
<path d="M600 2051 c0 -17 5 -31 10 -31 6 0 10 11 10 24 0 14 -4 28 -10 31 -6
4 -10 -7 -10 -24z"/>
<path d="M570 1963 c0 -5 4 -13 9 -18 5 -6 11 -19 14 -30 4 -18 5 -17 6 3 0
13 -6 30 -14 38 -8 9 -15 12 -15 7z"/>
<path d="M621 1944 c0 -11 3 -14 6 -6 3 7 2 16 -1 19 -3 4 -6 -2 -5 -13z"/>
<path d="M610 1891 c0 -6 4 -13 10 -16 6 -3 7 1 4 9 -7 18 -14 21 -14 7z"/>
<path d="M680 1660 c0 -5 5 -10 10 -10 6 0 10 5 10 10 0 6 -4 10 -10 10 -5 0
-10 -4 -10 -10z"/>
</g>
</svg>
